<svg width="40" height="40" viewBox="0 0 40 40" fill="none" xmlns="http://www.w3.org/2000/svg">
<path d="M19.7657 0C13.278 0 8 5.27802 8 11.7657V28.2343C8 34.722 13.278 40 19.7657 40C26.2535 40 31.5315 34.722 31.5315 28.2343V11.7657C31.5315 5.27802 26.2535 0 19.7657 0ZM29.1316 28.2343C29.1316 33.3984 24.9299 37.6001 19.7657 37.6001C14.6016 37.6001 10.3999 33.3984 10.3999 28.2343V11.7657C10.3999 6.60156 14.6016 2.3999 19.7657 2.3999C24.9299 2.3999 29.1316 6.60156 29.1316 11.7657V28.2343Z" fill="#D4C17F"/>
<path d="M19.9692 7.95715C19.3063 7.95715 18.7692 8.49426 18.7692 9.1571V14.6802C18.7692 15.3427 19.3063 15.8801 19.9692 15.8801C20.6317 15.8801 21.1691 15.3427 21.1691 14.6802V9.1571C21.1691 8.49426 20.632 7.95715 19.9692 7.95715Z" fill="#D4C17F"/>
</svg>
