<svg width="134" height="65" viewBox="0 0 134 65" fill="none" xmlns="http://www.w3.org/2000/svg">
<path d="M1.44141 37V12.3906H4.5V33.9766H14.6602V37H1.44141ZM16.6289 31.7969V23.1133C16.6289 22.0117 17.1211 20.9336 18.1055 19.8789C19.3242 18.6133 20.8477 17.9805 22.6758 17.9805V20.8281C21.293 20.8281 20.332 21.4023 19.793 22.5508C19.6289 22.9023 19.5469 23.2539 19.5469 23.6055V31.3398C19.5469 32.207 19.9453 32.9453 20.7422 33.5547C21.3047 33.9766 21.9492 34.1875 22.6758 34.1875V37.0352C20.4492 37.0352 18.7266 36.1328 17.5078 34.3281C16.9219 33.4375 16.6289 32.5938 16.6289 31.7969ZM24.1875 37.0352V34.1875C25.4297 34.1875 26.3203 33.625 26.8594 32.5C27.0469 32.125 27.1406 31.7617 27.1406 31.4102V23.6055C27.1406 22.6445 26.7305 21.8828 25.9102 21.3203C25.3945 20.9922 24.8086 20.8281 24.1523 20.8281V17.9805C26.3086 17.9805 27.9727 18.8594 29.1445 20.6172C29.7305 21.4844 30.0234 22.3164 30.0234 23.1133V31.7969C30.0234 32.9453 29.5312 34.0586 28.5469 35.1367C27.3984 36.3789 25.9453 37.0117 24.1875 37.0352ZM32.168 22.4102V19.5273H34.4883V17.4883C34.4883 16.1758 34.9219 14.9805 35.7891 13.9023C36.75 12.7773 37.9922 12.2031 39.5156 12.1797H40.8164L40.1484 15.0273H39.4805C38.1445 15.0977 37.4648 15.918 37.4414 17.4883V19.5625L39.832 19.5273V22.4102H37.4414V37H34.4883V22.4102H32.168ZM41.8008 21.0391V18.1914H44.1211V12.1094H47.1094V18.1914H49.3594V21.0742H47.1094V31.1641C47.1094 32.8281 47.7891 33.7539 49.1484 33.9414C49.4062 33.9883 49.6641 34.0117 49.9219 34.0117H50.4141L51.082 37H49.8164C46.9336 36.9766 45.1641 35.8984 44.5078 33.7656C44.2734 32.9688 44.1562 31.9844 44.1562 30.8125L44.1211 21.0391H41.8008ZM52.6641 37V12.3906H55.7227V23.1133H58.8867V26.1016H55.7227V37H52.6641ZM60.6445 26.1016V23.1133H63.7734V12.3906H66.8672V37H63.7734V26.1016H60.6445ZM69.6094 31.7969V23.1133C69.6094 22.0117 70.1016 20.9336 71.0859 19.8789C72.3047 18.6133 73.8281 17.9805 75.6562 17.9805V20.8281C74.2734 20.8281 73.3125 21.4023 72.7734 22.5508C72.6094 22.9023 72.5273 23.2539 72.5273 23.6055V31.3398C72.5273 32.207 72.9258 32.9453 73.7227 33.5547C74.2852 33.9766 74.9297 34.1875 75.6562 34.1875V37.0352C73.4297 37.0352 71.707 36.1328 70.4883 34.3281C69.9023 33.4375 69.6094 32.5938 69.6094 31.7969ZM77.168 37.0352V34.1875C78.4102 34.1875 79.3008 33.625 79.8398 32.5C80.0273 32.125 80.1211 31.7617 80.1211 31.4102V23.6055C80.1211 22.6445 79.7109 21.8828 78.8906 21.3203C78.375 20.9922 77.7891 20.8281 77.1328 20.8281V17.9805C79.2891 17.9805 80.9531 18.8594 82.125 20.6172C82.7109 21.4844 83.0039 22.3164 83.0039 23.1133V31.7969C83.0039 32.9453 82.5117 34.0586 81.5273 35.1367C80.3789 36.3789 78.9258 37.0117 77.168 37.0352ZM85.6758 31.9375V18.0156H88.6641V31.5859C88.6641 32.4297 89.0859 33.1328 89.9297 33.6953C90.4922 34.0469 91.1133 34.2227 91.793 34.2227V37.1758C89.543 37.1758 87.8086 36.2969 86.5898 34.5391C85.9805 33.6484 85.6758 32.7812 85.6758 31.9375ZM93.3398 37.1758V34.2227C94.6055 34.2227 95.5312 33.7188 96.1172 32.7109C96.3281 32.3359 96.4336 31.9609 96.4336 31.5859V18.0156H99.4219V31.9375C99.4219 33.0391 98.918 34.1289 97.9102 35.207C96.6914 36.4961 95.168 37.1523 93.3398 37.1758ZM101.461 32.0078L104.238 31.4805C104.238 32.5352 104.789 33.3672 105.891 33.9766C106.43 34.2344 106.945 34.375 107.438 34.3984V37.1758C105.164 37.1758 103.465 36.3555 102.34 34.7148C101.754 33.8477 101.461 32.9453 101.461 32.0078ZM101.637 23.3594C101.637 21.2266 102.609 19.6445 104.555 18.6133C105.492 18.1211 106.43 17.875 107.367 17.875V20.6172C106.289 20.6172 105.457 21.0625 104.871 21.9531C104.566 22.3984 104.414 22.8672 104.414 23.3594C104.414 24.1094 105 24.7188 106.172 25.1875C107.062 25.5625 108.785 26.0547 111.34 26.6641C112.934 26.9922 114.07 27.7773 114.75 29.0195C115.102 29.6758 115.277 30.4141 115.277 31.2344C115.277 33.4844 114.375 35.1484 112.57 36.2266C111.516 36.8594 110.309 37.1758 108.949 37.1758V34.3984C110.027 34.3984 110.93 34.0234 111.656 33.2734C112.172 32.7344 112.43 32.1016 112.43 31.375C112.43 30.4375 111.504 29.6875 109.652 29.125C109.184 28.9844 108.434 28.7852 107.402 28.5273C106.301 28.2695 105.504 28.0586 105.012 27.8945C103.23 27.1914 102.152 26.125 101.777 24.6953C101.684 24.2734 101.637 23.8281 101.637 23.3594ZM108.914 20.6523V17.875C110.93 17.875 112.559 18.625 113.801 20.125C114.574 21.0859 114.961 22.0938 114.961 23.1484L112.184 23.6055C112.184 22.3164 111.48 21.4141 110.074 20.8984C109.652 20.7344 109.266 20.6523 108.914 20.6523ZM117.352 31.7969V23.0781C117.375 22 117.891 20.9336 118.898 19.8789C120.117 18.6367 121.594 18.0039 123.328 17.9805V20.7578C122.203 20.7578 121.324 21.25 120.691 22.2344C120.434 22.6562 120.305 23.043 120.305 23.3945V25.7852H128.18V23.3945C128.18 22.3398 127.641 21.5664 126.562 21.0742C126.07 20.8398 125.566 20.7227 125.051 20.7227V17.9805C126.668 17.9805 128.109 18.5547 129.375 19.7031C130.43 20.7109 130.969 21.8242 130.992 23.043V28.6328H120.305V31.7969C120.305 32.4531 120.68 33.0625 121.43 33.625C122.039 34.0469 122.684 34.2578 123.363 34.2578V37C121.23 37 119.555 36.1328 118.336 34.3984C117.68 33.4844 117.352 32.6172 117.352 31.7969ZM125.051 37V34.2227C126.457 34.2227 127.512 33.6133 128.215 32.3945C128.355 32.1367 128.461 31.8906 128.531 31.6562L131.027 32.5703C130.605 34.1875 129.645 35.4062 128.145 36.2266C127.184 36.7422 126.152 37 125.051 37Z" fill="white"/>
<path d="M2.892 57.584L0.348 53.48H1.308L3.612 57.26H5.208V53.48H6.132V57.26H7.728L10.02 53.48H10.992L8.436 57.584L11.304 62H10.332L7.848 58.004H6.132V62H5.208V58.004H3.492L1.008 62H0.036L2.892 57.584ZM14.7038 60.74L19.9838 53.48H20.6798V62H19.8398V54.86L14.6438 62H13.8758V53.48H14.7038V60.74ZM26.2123 55.736C26.1163 56.864 25.9923 57.828 25.8403 58.628C25.6963 59.428 25.5123 60.084 25.2883 60.596C25.0723 61.1 24.8083 61.472 24.4963 61.712C24.1923 61.944 23.8323 62.06 23.4163 62.06L23.2723 61.256C23.4323 61.248 23.5843 61.216 23.7283 61.16C23.8803 61.104 24.0243 61.004 24.1603 60.86C24.2963 60.708 24.4243 60.504 24.5443 60.248C24.6643 59.984 24.7763 59.648 24.8803 59.24C24.9843 58.824 25.0763 58.324 25.1563 57.74C25.2443 57.156 25.3203 56.464 25.3843 55.664L25.5643 53.48H29.8963V62H29.0683V54.224H26.3323L26.2123 55.736ZM36.957 62.06C36.365 62.06 35.821 61.94 35.325 61.7C34.837 61.452 34.417 61.128 34.065 60.728C33.713 60.32 33.441 59.856 33.249 59.336C33.057 58.816 32.961 58.284 32.961 57.74C32.961 57.172 33.061 56.628 33.261 56.108C33.469 55.588 33.753 55.128 34.113 54.728C34.473 54.328 34.897 54.012 35.385 53.78C35.873 53.54 36.401 53.42 36.969 53.42C37.561 53.42 38.101 53.548 38.589 53.804C39.085 54.052 39.505 54.38 39.849 54.788C40.201 55.196 40.473 55.66 40.665 56.18C40.857 56.692 40.953 57.216 40.953 57.752C40.953 58.32 40.849 58.864 40.641 59.384C40.441 59.904 40.161 60.364 39.801 60.764C39.449 61.156 39.029 61.472 38.541 61.712C38.053 61.944 37.525 62.06 36.957 62.06ZM33.801 57.74C33.801 58.204 33.877 58.652 34.029 59.084C34.181 59.508 34.397 59.888 34.677 60.224C34.957 60.552 35.289 60.816 35.673 61.016C36.057 61.208 36.485 61.304 36.957 61.304C37.437 61.304 37.873 61.2 38.265 60.992C38.657 60.784 38.989 60.512 39.261 60.176C39.533 59.84 39.741 59.46 39.885 59.036C40.037 58.612 40.113 58.18 40.113 57.74C40.113 57.276 40.033 56.832 39.873 56.408C39.721 55.976 39.505 55.596 39.225 55.268C38.945 54.94 38.613 54.68 38.229 54.488C37.845 54.288 37.421 54.188 36.957 54.188C36.477 54.188 36.041 54.292 35.649 54.5C35.257 54.7 34.925 54.968 34.653 55.304C34.381 55.64 34.169 56.02 34.017 56.444C33.873 56.868 33.801 57.3 33.801 57.74ZM49.2567 51.008C49.2407 51.392 49.0767 51.7 48.7647 51.932C48.4607 52.156 48.0367 52.268 47.4927 52.268C46.9487 52.268 46.5207 52.156 46.2087 51.932C45.9047 51.7 45.7447 51.392 45.7287 51.008H46.2447C46.2447 51.112 46.2767 51.212 46.3407 51.308C46.4047 51.404 46.4927 51.488 46.6047 51.56C46.7167 51.632 46.8487 51.692 47.0007 51.74C47.1527 51.78 47.3207 51.8 47.5047 51.8C47.8487 51.8 48.1327 51.728 48.3567 51.584C48.5887 51.432 48.7207 51.24 48.7527 51.008H49.2567ZM44.8167 60.74L50.0967 53.48H50.7927V62H49.9527V54.86L44.7567 62H43.9887V53.48H44.8167V60.74ZM59.7319 57.26H61.0279L63.8119 53.48H64.7719L61.7839 57.584L65.0839 62H64.1239L61.0999 58.004H59.7319V62H58.9039V53.48H59.7319V57.26ZM70.6545 62.06C70.0625 62.06 69.5185 61.94 69.0225 61.7C68.5345 61.452 68.1145 61.128 67.7625 60.728C67.4105 60.32 67.1385 59.856 66.9465 59.336C66.7545 58.816 66.6585 58.284 66.6585 57.74C66.6585 57.172 66.7585 56.628 66.9585 56.108C67.1665 55.588 67.4505 55.128 67.8105 54.728C68.1705 54.328 68.5945 54.012 69.0825 53.78C69.5705 53.54 70.0985 53.42 70.6665 53.42C71.2585 53.42 71.7985 53.548 72.2865 53.804C72.7825 54.052 73.2025 54.38 73.5465 54.788C73.8985 55.196 74.1705 55.66 74.3625 56.18C74.5545 56.692 74.6505 57.216 74.6505 57.752C74.6505 58.32 74.5465 58.864 74.3385 59.384C74.1385 59.904 73.8585 60.364 73.4985 60.764C73.1465 61.156 72.7265 61.472 72.2385 61.712C71.7505 61.944 71.2225 62.06 70.6545 62.06ZM67.4985 57.74C67.4985 58.204 67.5745 58.652 67.7265 59.084C67.8785 59.508 68.0945 59.888 68.3745 60.224C68.6545 60.552 68.9865 60.816 69.3705 61.016C69.7545 61.208 70.1825 61.304 70.6545 61.304C71.1345 61.304 71.5705 61.2 71.9625 60.992C72.3545 60.784 72.6865 60.512 72.9585 60.176C73.2305 59.84 73.4385 59.46 73.5825 59.036C73.7345 58.612 73.8105 58.18 73.8105 57.74C73.8105 57.276 73.7305 56.832 73.5705 56.408C73.4185 55.976 73.2025 55.596 72.9225 55.268C72.6425 54.94 72.3105 54.68 71.9265 54.488C71.5425 54.288 71.1185 54.188 70.6545 54.188C70.1745 54.188 69.7385 54.292 69.3465 54.5C68.9545 54.7 68.6225 54.968 68.3505 55.304C68.0785 55.64 67.8665 56.02 67.7145 56.444C67.5705 56.868 67.4985 57.3 67.4985 57.74ZM85.2222 62V55.004L82.1142 60.416H81.6222L78.5142 55.004V62H77.6742V53.48H78.5382L81.8622 59.312L85.2102 53.48H86.0622V62H85.2222ZM89.6848 53.48H96.2608V62H95.4208V54.224H90.5128V62H89.6848V53.48ZM101.787 55.736C101.691 56.864 101.567 57.828 101.415 58.628C101.271 59.428 101.087 60.084 100.863 60.596C100.647 61.1 100.383 61.472 100.071 61.712C99.767 61.944 99.407 62.06 98.991 62.06L98.847 61.256C99.007 61.248 99.159 61.216 99.303 61.16C99.455 61.104 99.599 61.004 99.735 60.86C99.871 60.708 99.999 60.504 100.119 60.248C100.239 59.984 100.351 59.648 100.455 59.24C100.559 58.824 100.651 58.324 100.731 57.74C100.819 57.156 100.895 56.464 100.959 55.664L101.139 53.48H105.471V62H104.643V54.224H101.907L101.787 55.736ZM114.824 61.256V62H109.1V53.48H114.716V54.224H109.94V57.296H114.104V58.004H109.94V61.256H114.824ZM118.692 57.26H119.988L122.772 53.48H123.732L120.744 57.584L124.044 62H123.084L120.06 58.004H118.692V62H117.864V53.48H118.692V57.26ZM125.607 57.68C125.607 57.168 125.695 56.66 125.871 56.156C126.055 55.644 126.319 55.188 126.663 54.788C127.007 54.388 127.431 54.064 127.935 53.816C128.439 53.56 129.011 53.432 129.651 53.432C130.411 53.432 131.059 53.604 131.595 53.948C132.139 54.292 132.539 54.74 132.795 55.292L132.135 55.7C131.999 55.42 131.831 55.184 131.631 54.992C131.439 54.8 131.231 54.644 131.007 54.524C130.783 54.404 130.551 54.32 130.311 54.272C130.071 54.216 129.835 54.188 129.603 54.188C129.091 54.188 128.639 54.292 128.247 54.5C127.855 54.708 127.523 54.98 127.251 55.316C126.987 55.652 126.787 56.032 126.651 56.456C126.515 56.872 126.447 57.296 126.447 57.728C126.447 58.2 126.527 58.652 126.687 59.084C126.855 59.516 127.079 59.9 127.359 60.236C127.647 60.564 127.983 60.828 128.367 61.028C128.759 61.22 129.183 61.316 129.639 61.316C129.879 61.316 130.123 61.288 130.371 61.232C130.627 61.168 130.871 61.072 131.103 60.944C131.343 60.808 131.563 60.644 131.763 60.452C131.963 60.252 132.131 60.012 132.267 59.732L132.963 60.092C132.827 60.412 132.635 60.696 132.387 60.944C132.139 61.184 131.863 61.388 131.559 61.556C131.255 61.724 130.931 61.852 130.587 61.94C130.251 62.028 129.919 62.072 129.591 62.072C129.007 62.072 128.471 61.944 127.983 61.688C127.495 61.432 127.075 61.1 126.723 60.692C126.371 60.276 126.095 59.808 125.895 59.288C125.703 58.76 125.607 58.224 125.607 57.68Z" fill="white"/>
</svg>
